# xmcd CD database file
# Generated: Sun Dec 28 20:37:45 2003 by KSCD
# 
# Track frame offsets:
#       150
#       13395
#       25584
#       36362
#       48313
#       64193
#       77867
#       89965
#       100429
#       112318
#       125224
#       140355
#
# Disc length: 2050 seconds
#
# Revision: 1
# Processed by: cddbd v1.4PL0 Copyright (c) Steve Scherf et al.
# Submitted via: Kscd 1.3.3
#
DISCID=b608000c
DTITLE=Joan Sebastian - Coleccion de Oro (disco 3)
DYEAR=1900
DGENRE=
TTITLE0=Mujeres Bonitas
TTITLE1=La Carreta
TTITLE2=Mosca Muerta
TTITLE3=El Viejo Joven
TTITLE4=El Pero De Tus Antojos
TTITLE5=Sangoloteadito
TTITLE6=Bigote Mojado
TTITLE7=Oiga Primo
TTITLE8=Otro Dolor
TTITLE9=La Prietita Que You Quiero
TTITLE10=Sin Pasaporte
TTITLE11=Bandido De Amores
EXTD=
EXTT0=
EXTT1=
EXTT2=
EXTT3=
EXTT4=
EXTT5=
EXTT6=
EXTT7=
EXTT8=
EXTT9=
EXTT10=
EXTT11=
PLAYORDER=
